<svg xmlns="http://www.w3.org/2000/svg" width="40" height="40" fill="none" viewBox="0 0 40 40"><g clip-path="url(#a)"><path fill="#fff" d="M40 0H0v40h40z"/><path fill="#01411c" d="M40 0H9v41h31z"/><path fill="#fff" d="M24.625 28.6c4.529 0 8.2-3.626 8.2-8.1 0-4.473-3.671-8.1-8.2-8.1s-8.2 3.627-8.2 8.1c0 4.474 3.671 8.1 8.2 8.1"/><path fill="#01411c" d="M31.715 24.209a7.36 7.36 0 0 0 .624-10.482c-2.758-3.065-7.509-3.341-10.612-.617a7.36 7.36 0 0 0-.624 10.482c2.758 3.065 7.51 3.341 10.612.617"/><path fill="#fff" d="m27.615 14.44 3.454 3.838-5.078-1.1 4.763-2.059-2.629 4.431z"/></g><defs><clipPath id="a"><path fill="#fff" d="M0 0h40v40H0z"/></clipPath></defs></svg>